<svg xmlns="http://www.w3.org/2000/svg" width="973.204" height="366.97" viewBox="0 0 973.204 366.97">
  <g id="Group_2064" data-name="Group 2064" transform="translate(-924.35 92.818)">
    <path id="Path_3704" data-name="Path 3704" d="M1918.6,559.8l-12.059-2.754,2.287-19.892-17.134-6.2-.722-15.166-7.678.365.965,20.284,16.238,5.876-2.379,20.693,18.145,4.143Z" transform="translate(-240 -293)" fill="#fcbb15"/>
    <path id="Path_3705" data-name="Path 3705" d="M841.168,612.151l-6.386-9.234-11.226.025a1.543,1.543,0,0,1-1.23-2.478l6.809-8.926-3.493-10.669a1.543,1.543,0,0,1,1.977-1.936l10.593,3.717,9.067-6.618a1.542,1.542,0,0,1,2.452,1.281l-.261,11.224,9.1,6.578a1.543,1.543,0,0,1-.462,2.728l-10.755,3.219L843.9,611.747A1.542,1.542,0,0,1,841.168,612.151Z" transform="translate(102.342 -601.092)" fill="#f47b20"/>
    <path id="Path_3717" data-name="Path 3717" d="M717.749,649.22c-4.231,9.458,3.646,20.372,12.944,22.52,10.278,2.374,21.327-3.3,25.8-12.747,4.842-10.229,1-20.75-8.717-24.555-9.463-3.7-18.28,3.044-18.12,12.6.114,6.851,5.107,10.907,8.5,10.055,2.645-.664,3.536-4.091,1.008-5.509a2.926,2.926,0,0,0-3.145.356c-2.086-1.66-3.033-6.662-.088-10.858,3.761-5.361,11.391-3.419,15.224.775,4.879,5.338,3.506,13.233-.516,18.637a19.135,19.135,0,0,1-18.952,7.21,14.91,14.91,0,0,1-11.16-17.631A1.455,1.455,0,0,0,717.749,649.22Z" transform="translate(1138.968 -726.225)" fill="#56ba6b"/>
  </g>
</svg>
